# xmcd CD database file
# Copyright (C) 1996 Ti Kan
#
# Track frame offsets:
# 	182
# 	10310
# 	23117
# 	35647
# 	48527
# 	57360
# 	68632
# 	81475
# 	90190
# 	99935
# 	109510
# 	121157
#
# Disc length: 1796 seconds
#
# Revision: 1
# Processed by: cddbd v1.4b41PL1 Copyright (c) Steve Scherf et al.
# Submitted via: DiscPlay 3.4.1
#
DISCID=8e07020c
DTITLE=Carl Perkins - Heroes of rock'n roll
DYEAR=1900
DGENRE=
TTITLE0=blue suede shoes
TTITLE1=boppin' the blues
TTITLE2=your true love
TTITLE3=put your cat clothes on
TTITLE4=honky tonk gal
TTITLE5=i'm sorry i'm not sory
TTITLE6=honey don't
TTITLE7=everybody's trying to be my baby
TTITLE8=movie magg
TTITLE9=all mama's children
TTITLE10=right string baby but the wrong yoyo
TTITLE11=tennessee
EXTD=
EXTT0=
EXTT1=
EXTT2=
EXTT3=
EXTT4=
EXTT5=
EXTT6=
EXTT7=
EXTT8=
EXTT9=
EXTT10=
EXTT11=
PLAYORDER=
